ffmpeg version 3.4.8-0ubuntu0.2 Copyright (c) 2000-2020 the FFmpeg developers
  built with gcc 7 (Ubuntu 7.5.0-3ubuntu1~18.04)
  configuration: --prefix=/usr --extra-version=0ubuntu0.2 --toolchain=hardened --libdir=/usr/lib/x86_64-linux-gnu --incdir=/usr/include/x86_64-linux-gnu --enable-gpl --disable-stripping --enable-avresample --enable-avisynth --enable-gnutls --enable-ladspa --enable-libass --enable-libbluray --enable-libbs2b --enable-libcaca --enable-libcdio --enable-libflite --enable-libfontconfig --enable-libfreetype --enable-libfribidi --enable-libgme --enable-libgsm --enable-libmp3lame --enable-libmysofa --enable-libopenjpeg --enable-libopenmpt --enable-libopus --enable-libpulse --enable-librubberband --enable-librsvg --enable-libshine --enable-libsnappy --enable-libsoxr --enable-libspeex --enable-libssh --enable-libtheora --enable-libtwolame --enable-libvorbis --enable-libvpx --enable-libwavpack --enable-libwebp --enable-libx265 --enable-libxml2 --enable-libxvid --enable-libzmq --enable-libzvbi --enable-omx --enable-openal --enable-opengl --enable-sdl2 --enable-libdc1394 --enable-libdrm --enable-libiec61883 --enable-chromaprint --enable-frei0r --enable-libopencv --enable-libx264 --enable-shared
  libavutil      55. 78.100 / 55. 78.100
  libavcodec     57.107.100 / 57.107.100
  libavformat    57. 83.100 / 57. 83.100
  libavdevice    57. 10.100 / 57. 10.100
  libavfilter     6.107.100 /  6.107.100
  libavresample   3.  7.  0 /  3.  7.  0
  libswscale      4.  8.100 /  4.  8.100
  libswresample   2.  9.100 /  2.  9.100
  libpostproc    54.  7.100 / 54.  7.100
[rawvideo @ 0x55f8195c4a20] Estimating duration from bitrate, this may be inaccurate
Input #0, rawvideo, from '../../SVC-Encoder-20220109T061506Z-001/SVC-Encoder/Dataset/RollerCoaster/ERP_8x8/tile_yuv/Tile_45_480x240.yuv':
  Duration: 00:00:10.00, start: 0.000000, bitrate: 41472 kb/s
    Stream #0:0: Video: rawvideo (I420 / 0x30323449), yuv420p, 480x240, 41472 kb/s, 30 tbr, 30 tbn, 30 tbc
Stream mapping:
  Stream #0:0 -> #0:0 (rawvideo (native) -> h264 (libx264))
Press [q] to stop, [?] for help
[libx264 @ 0x55f8195d1c60] using cpu capabilities: MMX2 SSE2Fast LZCNT SSSE3 SSE4.2 AVX
[libx264 @ 0x55f8195d1c60] profile High, level 2.1
Output #0, rawvideo, to 'RollerCoaster_Tile_45_480x240_x264_QP_36.h264':
  Metadata:
    encoder         : Lavf57.83.100
    Stream #0:0: Video: h264 (libx264), yuv420p, 480x240, q=-1--1, 30 fps, 30 tbn, 30 tbc
    Metadata:
      encoder         : Lavc57.107.100 libx264
    Side data:
      cpb: bitrate max/min/avg: 0/0/0 buffer size: 0 vbv_delay: -1
frame=  161 fps=0.0 q=42.0 PSNR=Y:nan U:nan V:nan *:nan size=      45kB time=00:00:03.93 bitrate=  94.1kbits/s speed=7.77x    frame=  300 fps=284 q=42.0 LPSNR=Y:inf U:inf V:inf *:inf size=     109kB time=00:00:09.93 bitrate=  90.2kbits/s speed=9.39x    
video:109kB audio:0kB subtitle:0kB other streams:0kB global headers:0kB muxing overhead: 0.000000%
[libx264 @ 0x55f8195d1c60] frame I:2     Avg QP:35.04  size:  4860  PSNR Mean Y:33.91 U:39.79 V:42.45 Avg:35.26 Global:35.24
[libx264 @ 0x55f8195d1c60] frame P:82    Avg QP:37.29  size:   779  PSNR Mean Y:32.47 U:40.32 V:42.59 Avg:33.96 Global:33.95
[libx264 @ 0x55f8195d1c60] frame B:216   Avg QP:41.55  size:   178  PSNR Mean Y:32.28 U:40.44 V:42.60 Avg:33.78 Global:33.77
[libx264 @ 0x55f8195d1c60] consecutive B-frames:  0.7%  7.3%  8.0% 84.0%
[libx264 @ 0x55f8195d1c60] mb I  I16..4: 12.8% 72.4% 14.8%
[libx264 @ 0x55f8195d1c60] mb P  I16..4:  1.3%  2.6%  0.2%  P16..4: 42.5%  6.1%  0.9%  0.0%  0.0%    skip:46.5%
[libx264 @ 0x55f8195d1c60] mb B  I16..4:  0.0%  0.0%  0.0%  B16..8: 23.6%  1.5%  0.1%  direct: 0.1%  skip:74.8%  L0:37.0% L1:62.7% BI: 0.4%
[libx264 @ 0x55f8195d1c60] 8x8 transform intra:65.7% inter:89.7%
[libx264 @ 0x55f8195d1c60] coded y,uvDC,uvAC intra: 47.9% 55.9% 13.8% inter: 3.0% 2.5% 0.0%
[libx264 @ 0x55f8195d1c60] i16 v,h,dc,p:  9% 49% 27% 16%
[libx264 @ 0x55f8195d1c60] i8 v,h,dc,ddl,ddr,vr,hd,vl,hu:  3% 30% 22%  3% 11%  8% 17%  2%  6%
[libx264 @ 0x55f8195d1c60] i4 v,h,dc,ddl,ddr,vr,hd,vl,hu:  6% 40% 19%  1%  8%  5% 18%  1%  2%
[libx264 @ 0x55f8195d1c60] i8c dc,h,v,p: 49% 42%  5%  5%
[libx264 @ 0x55f8195d1c60] Weighted P-Frames: Y:0.0% UV:0.0%
[libx264 @ 0x55f8195d1c60] ref P L0: 58.6% 14.5% 16.8% 10.1%
[libx264 @ 0x55f8195d1c60] ref B L0: 84.6% 12.3%  3.1%
[libx264 @ 0x55f8195d1c60] ref B L1: 93.1%  6.9%
[libx264 @ 0x55f8195d1c60] PSNR Mean Y:32.341 U:40.407 V:42.596 Avg:33.836 Global:33.822 kb/s:89.63
